<svg xmlns="http://www.w3.org/2000/svg" viewBox="0 0 16 16"><path fill="#fff" d="M2.5 14.5L2.5 0.5 9.9 0.5 13.5 4.2 13.5 14.5z"></path><path fill="#c74343" d="M9.7,1L13,4.4V14H3V1H9.7 M10.1,0H2v15h12V4L10.1,0L10.1,0z"></path><path fill="#ffd9d9" d="M9.5 4.5L9.5 0.5 9.8 0.5 13.5 4.2 13.5 4.5z"></path><path fill="#c74343" d="M10 1.4L12.6 4H10V1.4M10 0H9v5h5V4L10 0 10 0zM5.2 12.4c-.4 0-.8-.3-.8-.7 0-.7.8-1.2 1.8-1.6 0 0 0-.1.1-.1C6.7 9.2 7 8.5 7.2 7.8 7 7.3 6.9 6.7 6.9 6.3 6.9 6 6.9 5.8 7 5.6c.3-.5 1.1-.5 1.4 0C8.5 5.8 8.6 6 8.6 6.3c0 .4-.1.9-.3 1.6.1.3.3.7.5 1C9 9.1 9.1 9.3 9.3 9.4c.8-.1 1.3 0 1.7.1.6.2.7.7.7.8 0 .2-.1.4-.2.6-.2.2-.5.3-.8.3 0 0 0 0 0 0-.6 0-1.2-.3-1.7-.8-.6.1-1.3.2-1.9.4C6.4 11.8 5.8 12.4 5.2 12.4zM10.7 10.4L10.7 10.4h.5H10.7L10.7 10.4zM7.8 9.1C7.7 9.3 7.7 9.5 7.6 9.7c.2 0 .4-.1.6-.1C8 9.4 7.9 9.3 7.8 9.1z"></path></svg>